<svg width="189" height="189" xmlns="http://www.w3.org/2000/svg" xmlns:xlink="http://www.w3.org/1999/xlink" overflow="hidden"><defs><clipPath id="clip0"><rect x="0" y="0" width="189" height="189"/></clipPath></defs><g clip-path="url(#clip0)"><rect x="0" y="0" width="189" height="189" fill="#FFFFFF"/><path d="M40.1625 168.328 64.7719 143.719C68.1187 140.372 69.3 135.844 68.5125 131.513L77.175 122.85C87.0188 130.528 99.6187 135.056 113.006 135.056 145.491 135.056 172.069 108.478 172.069 75.9937 172.069 43.5094 145.491 16.9313 113.006 16.9313 80.5219 16.9313 53.9438 43.5094 53.9438 75.9937 53.9438 89.3813 58.4719 101.784 66.15 111.825L57.4875 120.488C53.1562 119.7 48.6281 120.881 45.2812 124.228L20.6719 148.837C17.9156 151.594 16.5375 155.138 16.5375 158.681 16.5375 162.225 17.9156 165.769 20.6719 168.525 26.1844 173.644 34.8469 173.644 40.1625 168.328ZM65.9531 75.7969C65.9531 49.8094 87.2156 28.5469 113.203 28.5469 139.191 28.5469 160.453 49.8094 160.453 75.7969 160.453 101.784 139.191 123.047 113.203 123.047 87.2156 123.047 65.9531 101.784 65.9531 75.7969Z"/><text font-family="Noto Sans TC, sans-serif" font-weight="500" font-size="72" transform="translate(77 102)">評</text></g></svg>